<svg version="1.1" xmlns="http://www.w3.org/2000/svg" viewBox="0 0 406.0930246424916 384.8133467231346" width="406.0930246424916" height="384.8133467231346" class="excalidraw-svg">
  <!-- svg-source:excalidraw -->
  
  <defs>
    <style class="style-fonts">
      @font-face {
        font-family: "Virgil";
        src: url("https://excalidraw.com/Virgil.woff2");
      }
      @font-face {
        font-family: "Cascadia";
        src: url("https://excalidraw.com/Cascadia.woff2");
      }
      @font-face {
        font-family: "Assistant";
        src: url("https://excalidraw.com/Assistant-Regular.woff2");
      }
    </style>
    
  </defs>
  <g stroke-linecap="round" transform="translate(10 117.56258460916615) rotate(0 193.0465123212458 65.8914465571375)"><path d="M242.5 16.5 C264.26 26.08, 291.09 34.28, 337.59 49.5 C386.55 65.61, 387.28 67.54, 337.59 82.5 C302.84 91.44, 274.37 102.55, 242.5 115.28 C194.56 128.77, 192.33 131.1, 145.5 115.28 C110 104.86, 70.71 89.43, 48.5 82.5 C-1.08 63.88, -1.31 63.02, 48.5 49.5 C85.76 33.56, 123.03 23.05, 145.5 16.5 C192.7 0.41, 192.37 1.36, 242.5 16.5" stroke="none" stroke-width="0" fill="#eebefa"/><path d="M242.5 16.5 C275.61 28.21, 307.2 36.73, 337.59 49.5 M242.5 16.5 C260.95 22.45, 280.89 29.81, 337.59 49.5 M337.59 49.5 C384.98 66.49, 384.4 67.57, 337.59 82.5 M337.59 49.5 C383.97 65.39, 385.77 66.87, 337.59 82.5 M337.59 82.5 C301.86 95.48, 263.75 105.96, 242.5 115.28 M337.59 82.5 C312.47 90.58, 288.7 98.19, 242.5 115.28 M242.5 115.28 C193.43 132.08, 193.7 132.5, 145.5 115.28 M242.5 115.28 C194.29 131.52, 194.16 131.02, 145.5 115.28 M145.5 115.28 C119.29 107, 93.31 98.7, 48.5 82.5 M145.5 115.28 C108.47 102.46, 72.87 89.71, 48.5 82.5 M48.5 82.5 C-1.62 67.29, 1.82 64.09, 48.5 49.5 M48.5 82.5 C1.22 64.49, -0.73 66.96, 48.5 49.5 M48.5 49.5 C69.93 42.8, 89.83 35.95, 145.5 16.5 M48.5 49.5 C81.03 38.41, 113.14 27.29, 145.5 16.5 M145.5 16.5 C195.42 0.3, 192.81 0.37, 242.5 16.5 M145.5 16.5 C194.01 1.1, 195.06 -2.02, 242.5 16.5" stroke="#1e1e1e" stroke-width="2" fill="none"/></g><g stroke-linecap="round" transform="translate(161.0655070733037 23.022683027186076) rotate(0 47.765789435650674 166.16103914408598)"><path d="M60 41.75 C68.25 72.95, 75.99 99.55, 83.53 125.25 C96.72 168.54, 96.56 166.24, 83.53 208.75 C74.52 231.45, 68.69 254.25, 60 290.57 C46.33 331.64, 51.15 330.09, 36 290.57 C29.44 271.39, 22.43 248.67, 12 208.75 C-1.31 164.02, 2.87 167.44, 12 125.25 C21.31 95.26, 27.68 66.13, 36 41.75 C46.37 1.36, 49.08 0.58, 60 41.75" stroke="none" stroke-width="0" fill="#f8f0fc"/><path d="M60 41.75 C68.62 67.07, 73.81 97.37, 83.53 125.25 M60 41.75 C66.7 67.7, 73.24 93.42, 83.53 125.25 M83.53 125.25 C93.84 168.57, 93.68 166.47, 83.53 208.75 M83.53 125.25 C95.21 167.87, 97.66 168.94, 83.53 208.75 M83.53 208.75 C78.83 227.1, 71.66 249.09, 60 290.57 M83.53 208.75 C76.79 228.1, 71.15 248.56, 60 290.57 M60 290.57 C47.7 333.04, 48.25 332.09, 36 290.57 M60 290.57 C48.16 331.56, 47.18 333.11, 36 290.57 M36 290.57 C30.08 273.98, 27.08 252.63, 12 208.75 M36 290.57 C29.82 264.57, 20.76 240.76, 12 208.75 M12 208.75 C1.82 165.09, 1.06 165.68, 12 125.25 M12 208.75 C-0.73 167.96, -2.09 168.6, 12 125.25 M12 125.25 C18.52 103.79, 24.39 83.5, 36 41.75 M12 125.25 C19.32 98.52, 27.99 71.75, 36 41.75 M36 41.75 C46.81 0.37, 48.01 0.95, 60 41.75 M36 41.75 C49.06 -2.02, 46.82 1.42, 60 41.75" stroke="#1e1e1e" stroke-width="2" fill="none"/></g><g stroke-linecap="round" transform="translate(141.89307947975522 -22.814845012562046) rotate(314.7188680325819 58.178400973526095 206.98511445545455)"><path d="M73.75 51.75 C84.78 88.52, 95.6 127.94, 101.61 155.25 C117.38 206.24, 116.28 203.61, 101.61 258.75 C94.87 281.43, 85.67 309.66, 73.75 362.22 C62.15 411.74, 57.04 415.7, 44.25 362.22 C31.65 319.85, 19.93 278.66, 14.75 258.75 C2.87 207.44, 2.09 207.49, 14.75 155.25 C19.87 131.52, 26.43 108.28, 44.25 51.75 C60.08 0.58, 56.3 -1.65, 73.75 51.75" stroke="none" stroke-width="0" fill="#f3f0ff"/><path d="M73.75 51.75 C81.48 88.4, 93.1 120.83, 101.61 155.25 M73.75 51.75 C80.04 76.88, 86.45 102.35, 101.61 155.25 M101.61 155.25 C114.51 206.47, 116.08 207.75, 101.61 258.75 M101.61 155.25 C118.48 208.94, 115.08 208.51, 101.61 258.75 M101.61 258.75 C91.74 293.09, 82.22 325.5, 73.75 362.22 M101.61 258.75 C91.92 292.39, 83 326.23, 73.75 362.22 M73.75 362.22 C59.25 413.74, 59.14 413.3, 44.25 362.22 M73.75 362.22 C58.18 414.75, 57.23 413.47, 44.25 362.22 M44.25 362.22 C35.72 323.93, 23.74 287.79, 14.75 258.75 M44.25 362.22 C34.97 336.1, 29.12 307.94, 14.75 258.75 M14.75 258.75 C1.06 205.68, -0.64 207.83, 14.75 155.25 M14.75 258.75 C-2.09 208.6, -1.03 208.57, 14.75 155.25 M14.75 155.25 C23.46 126.27, 31.69 95.89, 44.25 51.75 M14.75 155.25 C25.1 122.46, 33.17 89.59, 44.25 51.75 M44.25 51.75 C59.01 0.95, 59.92 -1.75, 73.75 51.75 M44.25 51.75 C57.82 1.42, 60.15 -1.43, 73.75 51.75" stroke="#1e1e1e" stroke-width="2" fill="none"/></g><g stroke-linecap="round" transform="translate(-38.84630493278519 135.13216793026436) rotate(311.93404503008804 245.19840821843587 57.274505431302885)"><path d="M307.5 14.5 C352.68 26.78, 396.45 34.97, 428.9 43.5 C490.32 54.61, 488.61 57.38, 428.9 72.5 C395.79 77.14, 369.1 82.74, 307.5 100.05 C244.04 116.28, 249.23 114.59, 184.5 100.05 C144.69 87.11, 110.21 81.87, 61.5 72.5 C2.09 58.49, -2.39 58.92, 61.5 43.5 C95.71 36.2, 134.07 27.01, 184.5 14.5 C243.3 -1.65, 245.12 -0.93, 307.5 14.5" stroke="none" stroke-width="0" fill="#ffffff"/><path d="M307.5 14.5 C332.62 18.24, 356.56 26.1, 428.9 43.5 M307.5 14.5 C344.98 24.18, 383.4 32.33, 428.9 43.5 M428.9 43.5 C490.12 58.75, 492.25 59.68, 428.9 72.5 M428.9 43.5 C489.12 59.51, 491.13 58.6, 428.9 72.5 M428.9 72.5 C401.77 76.78, 377.58 83.69, 307.5 100.05 M428.9 72.5 C398.48 79.89, 368.57 86.27, 307.5 100.05 M307.5 100.05 C246.14 113.88, 245.29 115.23, 184.5 100.05 M307.5 100.05 C244.23 114.05, 247.31 113.68, 184.5 100.05 M184.5 100.05 C138.23 87.9, 91.01 80.11, 61.5 72.5 M184.5 100.05 C157.6 93.61, 129.18 87.62, 61.5 72.5 M61.5 72.5 C-0.64 58.83, -1.82 59.39, 61.5 43.5 M61.5 72.5 C-1.03 59.57, -0.27 59.11, 61.5 43.5 M61.5 43.5 C97.62 34.85, 133.36 25.59, 184.5 14.5 M61.5 43.5 C99.05 34.46, 138.01 25.71, 184.5 14.5 M184.5 14.5 C246.92 -1.75, 244.97 1.24, 307.5 14.5 M184.5 14.5 C247.15 -1.43, 247.43 0.6, 307.5 14.5" stroke="#1e1e1e" stroke-width="2" fill="none"/></g><g stroke-linecap="round" transform="translate(167.34612990567302 137.61650312655593) rotate(0 45.12131666412694 48.70237354223207)"><path d="M48.78 0.86 C56.53 0.78, 66.08 4.14, 72.57 9.33 C79.06 14.52, 84.86 23.6, 87.7 32.02 C90.54 40.44, 91.58 51.38, 89.62 59.86 C87.65 68.34, 81.69 76.71, 75.92 82.87 C70.15 89.04, 62.93 94.87, 55.01 96.87 C47.1 98.86, 36.08 97.94, 28.42 94.83 C20.77 91.72, 13.77 85.41, 9.07 78.22 C4.37 71.04, 0.73 60.51, 0.22 51.72 C-0.29 42.92, 2.03 33.17, 6.01 25.48 C9.98 17.79, 15.82 9.76, 24.07 5.58 C32.32 1.39, 49.3 0.58, 55.51 0.37 C61.72 0.17, 61.55 3.36, 61.31 4.33 M28.09 3.28 C34.87 -0.57, 43.11 -0.2, 51.15 1.29 C59.2 2.78, 70.08 6.6, 76.34 12.22 C82.61 17.84, 86.9 26.63, 88.75 34.98 C90.59 43.33, 90.01 53.66, 87.41 62.33 C84.8 71, 79.12 81.09, 73.1 87.01 C67.08 92.93, 59.12 97.05, 51.3 97.85 C43.48 98.65, 33.52 95.71, 26.19 91.81 C18.86 87.92, 11.77 81.72, 7.31 74.49 C2.86 67.25, -0.44 57.06, -0.54 48.41 C-0.64 39.75, 2.09 29.87, 6.72 22.55 C11.35 15.22, 24.01 7.47, 27.22 4.45 C30.44 1.43, 25.85 3.77, 26.02 4.41" stroke="none" stroke-width="0" fill="#ebfbee"/><path d="M48.22 -0.75 C56.07 -0.97, 66.18 3.23, 72.65 8.55 C79.11 13.87, 84.17 22.66, 87 31.17 C89.84 39.67, 91.14 51.07, 89.66 59.59 C88.19 68.11, 83.78 76.15, 78.13 82.3 C72.47 88.46, 63.76 94.64, 55.73 96.53 C47.7 98.41, 37.78 96.64, 29.96 93.6 C22.13 90.57, 13.84 85.3, 8.78 78.32 C3.71 71.34, 0.09 60.54, -0.44 51.71 C-0.97 42.89, 1.74 33.02, 5.59 25.38 C9.44 17.73, 15.2 10.07, 22.66 5.86 C30.12 1.66, 45.36 0.85, 50.36 0.16 C55.35 -0.53, 52.78 0.89, 52.65 1.73 M36.48 0.35 C44.23 -1.89, 55.88 -0.34, 63.74 3.37 C71.59 7.08, 79.41 15.23, 83.62 22.61 C87.84 29.99, 89.13 39.19, 89.03 47.66 C88.93 56.12, 86.85 66.11, 83.04 73.4 C79.22 80.7, 73.55 87.32, 66.14 91.43 C58.73 95.53, 46.62 99.13, 38.55 98.03 C30.49 96.93, 23.69 90.74, 17.76 84.82 C11.82 78.91, 5.72 70.56, 2.94 62.54 C0.15 54.53, -0.69 44.86, 1.06 36.72 C2.8 28.58, 7.42 19.55, 13.41 13.71 C19.39 7.87, 32.93 3.59, 36.97 1.7 C41 -0.19, 37.4 1.64, 37.61 2.36" stroke="#1e1e1e" stroke-width="2" fill="none"/></g></svg>